<svg width="14" height="17" viewBox="0 0 14 17" fill="none" xmlns="http://www.w3.org/2000/svg">
<path fill-rule="evenodd" clip-rule="evenodd" d="M1 2.4502C1 1.91976 1.21071 1.41105 1.58579 1.03598C1.96086 0.660909 2.46957 0.450195 3 0.450195H11C11.5304 0.450195 12.0391 0.660909 12.4142 1.03598C12.7893 1.41105 13 1.91976 13 2.4502V14.4502C13.2652 14.4502 13.5196 14.5556 13.7071 14.7431C13.8946 14.9306 14 15.185 14 15.4502C14 15.7154 13.8946 15.9698 13.7071 16.1573C13.5196 16.3448 13.2652 16.4502 13 16.4502H10C9.73478 16.4502 9.48043 16.3448 9.29289 16.1573C9.10536 15.9698 9 15.7154 9 15.4502V13.4502C9 13.185 8.89464 12.9306 8.70711 12.7431C8.51957 12.5556 8.26522 12.4502 8 12.4502H6C5.73478 12.4502 5.48043 12.5556 5.29289 12.7431C5.10536 12.9306 5 13.185 5 13.4502V15.4502C5 15.7154 4.89464 15.9698 4.70711 16.1573C4.51957 16.3448 4.26522 16.4502 4 16.4502H1C0.734784 16.4502 0.48043 16.3448 0.292893 16.1573C0.105357 15.9698 0 15.7154 0 15.4502C0 15.185 0.105357 14.9306 0.292893 14.7431C0.48043 14.5556 0.734784 14.4502 1 14.4502V2.4502ZM4 3.4502H6V5.4502H4V3.4502ZM6 7.4502H4V9.4502H6V7.4502ZM8 3.4502H10V5.4502H8V3.4502ZM10 7.4502H8V9.4502H10V7.4502Z" fill="#5D636B"/>
</svg>
