<svg width="14" height="14" viewBox="0 0 14 14" fill="none" xmlns="http://www.w3.org/2000/svg">
<path fill-rule="evenodd" clip-rule="evenodd" d="M3.51795 0C3.7955 0 4.02051 0.24108 4.02051 0.538462V1.07692H9.04615V0.538462C9.04615 0.24108 9.2712 0 9.54872 0C9.82623 0 10.0513 0.24108 10.0513 0.538462V1.07692H11.559C12.3916 1.07692 13.0667 1.80015 13.0667 2.69231V12.3846C13.0667 13.2767 12.3916 14 11.559 14H1.50769C0.675014 14 0 13.2767 0 12.3846V2.69231C0 1.80015 0.675014 1.07692 1.50769 1.07692H3.01538V0.538462C3.01538 0.24108 3.24039 0 3.51795 0ZM9.04615 2.15385V2.69231C9.04615 2.98969 9.2712 3.23077 9.54872 3.23077C9.82623 3.23077 10.0513 2.98969 10.0513 2.69231V2.15385H11.559C11.8365 2.15385 12.0615 2.39493 12.0615 2.69231V4.30769H1.00513V2.69231C1.00513 2.39493 1.23014 2.15385 1.50769 2.15385H3.01538V2.69231C3.01538 2.98969 3.24039 3.23077 3.51795 3.23077C3.7955 3.23077 4.02051 2.98969 4.02051 2.69231V2.15385H9.04615ZM1.00513 5.38462V12.3846C1.00513 12.682 1.23014 12.9231 1.50769 12.9231H11.559C11.8365 12.9231 12.0615 12.682 12.0615 12.3846V5.38462H1.00513ZM6.03077 7C6.03077 6.70262 6.25578 6.46154 6.53333 6.46154C6.81089 6.46154 7.0359 6.70262 7.0359 7C7.0359 7.29738 6.81089 7.53846 6.53333 7.53846C6.25578 7.53846 6.03077 7.29738 6.03077 7ZM8.54359 6.46154C8.26603 6.46154 8.04103 6.70262 8.04103 7C8.04103 7.29738 8.26603 7.53846 8.54359 7.53846C8.82115 7.53846 9.04615 7.29738 9.04615 7C9.04615 6.70262 8.82115 6.46154 8.54359 6.46154ZM10.0513 7C10.0513 6.70262 10.2763 6.46154 10.5538 6.46154C10.8314 6.46154 11.0564 6.70262 11.0564 7C11.0564 7.29738 10.8314 7.53846 10.5538 7.53846C10.2763 7.53846 10.0513 7.29738 10.0513 7ZM10.5538 8.61539C10.2763 8.61539 10.0513 8.85647 10.0513 9.15385C10.0513 9.45123 10.2763 9.69231 10.5538 9.69231C10.8314 9.69231 11.0564 9.45123 11.0564 9.15385C11.0564 8.85647 10.8314 8.61539 10.5538 8.61539ZM8.04103 9.15385C8.04103 8.85647 8.26603 8.61539 8.54359 8.61539C8.82115 8.61539 9.04615 8.85647 9.04615 9.15385C9.04615 9.45123 8.82115 9.69231 8.54359 9.69231C8.26603 9.69231 8.04103 9.45123 8.04103 9.15385ZM6.53333 8.61539C6.25578 8.61539 6.03077 8.85647 6.03077 9.15385C6.03077 9.45123 6.25578 9.69231 6.53333 9.69231C6.81089 9.69231 7.0359 9.45123 7.0359 9.15385C7.0359 8.85647 6.81089 8.61539 6.53333 8.61539ZM4.02051 9.15385C4.02051 8.85647 4.24552 8.61539 4.52308 8.61539C4.80063 8.61539 5.02564 8.85647 5.02564 9.15385C5.02564 9.45123 4.80063 9.69231 4.52308 9.69231C4.24552 9.69231 4.02051 9.45123 4.02051 9.15385ZM2.51282 8.61539C2.23526 8.61539 2.01026 8.85647 2.01026 9.15385C2.01026 9.45123 2.23526 9.69231 2.51282 9.69231C2.79038 9.69231 3.01538 9.45123 3.01538 9.15385C3.01538 8.85647 2.79038 8.61539 2.51282 8.61539ZM2.01026 11.3077C2.01026 11.0104 2.23526 10.7692 2.51282 10.7692C2.79038 10.7692 3.01538 11.0104 3.01538 11.3077C3.01538 11.605 2.79038 11.8462 2.51282 11.8462C2.23526 11.8462 2.01026 11.605 2.01026 11.3077ZM4.52308 10.7692C4.24552 10.7692 4.02051 11.0104 4.02051 11.3077C4.02051 11.605 4.24552 11.8462 4.52308 11.8462C4.80063 11.8462 5.02564 11.605 5.02564 11.3077C5.02564 11.0104 4.80063 10.7692 4.52308 10.7692ZM6.03077 11.3077C6.03077 11.0104 6.25578 10.7692 6.53333 10.7692C6.81089 10.7692 7.0359 11.0104 7.0359 11.3077C7.0359 11.605 6.81089 11.8462 6.53333 11.8462C6.25578 11.8462 6.03077 11.605 6.03077 11.3077ZM8.54359 10.7692C8.26603 10.7692 8.04103 11.0104 8.04103 11.3077C8.04103 11.605 8.26603 11.8462 8.54359 11.8462C8.82115 11.8462 9.04615 11.605 9.04615 11.3077C9.04615 11.0104 8.82115 10.7692 8.54359 10.7692Z" fill="#5D636B"/>
</svg>
