<svg width="56" height="60" viewBox="0 0 56 60" fill="none" xmlns="http://www.w3.org/2000/svg">
<path fill-rule="evenodd" clip-rule="evenodd" d="M25.7402 1.1418C23.7985 2.09403 23.1227 3.06168 22.8807 5.23616C22.591 7.8346 22.9017 12.7539 23.4666 14.5165C23.7256 15.3246 23.935 16.0488 23.9321 16.1262C23.9292 16.2036 24.521 17.3496 25.2472 18.6733C26.1275 20.2781 26.5058 21.2662 26.3827 21.6397C26.2809 21.9475 25.2435 23.2946 24.0771 24.6335C17.9293 31.6896 8.53942 38.1155 0.510417 40.761C0.194833 40.8651 0 41.2161 0 41.6802V42.4314L3.41075 42.2351C12.5673 41.7088 19.3206 40.1551 27.8877 36.603C29.9367 35.7537 31.6534 35.0586 31.7024 35.0586C32.0378 35.0586 31.5455 36.2217 29.8629 39.4048C27.592 43.701 27.6039 43.6847 26.432 43.9921C25.8656 44.1404 25.5625 44.3787 25.6308 44.6218C25.6915 44.8369 25.746 45.1706 25.7524 45.3632C25.7588 45.5561 25.8186 45.6613 25.8854 45.5968C25.9522 45.5326 26.2748 45.7375 26.6023 46.0524L27.1979 46.625L27.7617 45.6786C28.1864 44.9662 28.8079 44.5346 30.2776 43.9321C31.351 43.4918 33.313 42.442 34.6377 41.5994C37.0924 40.0379 40.8333 36.6782 40.8333 36.035C40.8333 35.8392 41.0086 35.6149 41.2227 35.5358C41.4368 35.4568 41.9288 34.6801 42.3165 33.8097C42.9447 32.3982 43.0996 32.2417 43.75 32.3589C47.8762 33.1034 50.4443 33.4413 50.8471 33.293C51.977 32.876 51.3424 32.085 48.7812 30.7181C43.5992 27.9528 43.9314 28.3787 42.8665 23.1417C41.347 15.6675 39.4266 10.4644 36.2705 5.26672C35.6665 4.27187 33.4195 2.23843 32.1043 1.49678C30.2668 0.459877 27.4505 0.302855 25.7402 1.1418ZM31.1602 2.25806C31.2142 2.41088 31.362 2.47425 31.4892 2.39882C31.9182 2.14366 34.3787 4.50516 35.7499 6.48813C36.4989 7.5713 37.5649 9.49034 38.1185 10.7524C39.23 13.2861 41.1973 19.2955 41.0115 19.59C40.9468 19.6929 41.1991 21.2264 41.5724 22.9976C41.9457 24.7689 42.1969 26.2707 42.1304 26.3346C41.9892 26.4701 37.9654 23.5475 37.2566 22.7946C36.8512 22.3639 36.769 21.4849 36.7299 17.1752C36.7045 14.365 36.5852 12.0661 36.465 12.0661C36.3446 12.0661 36.2428 11.593 36.2384 11.0146C36.2303 9.91851 35.1178 6.73852 34.7422 6.73852C34.6237 6.73852 33.7919 8.34155 32.8942 10.3007L31.262 13.8626L31.047 12.4855C30.9289 11.7279 30.91 9.36136 31.005 7.22642C31.1943 2.96606 31.2363 3.07598 29.3901 2.99495C28.2339 2.94419 28.0548 3.6822 29.1623 3.93343L29.8871 4.09803L29.7911 8.33146C29.654 14.3796 30.1437 16.3385 32.5471 19.3564C33.9827 21.1591 39.438 26.3663 39.891 26.3663C40.0619 26.3663 40.245 26.4659 40.2987 26.5875C40.4268 26.8792 44.3823 29.7092 46.2134 30.8193C47.9132 31.8498 47.6216 31.9019 44.6437 31.0994C42.3803 30.4895 36.9725 28.1681 36.7987 27.7318C36.745 27.5975 36.5592 27.4879 36.3857 27.4879C36.2119 27.4879 35.8619 27.3003 35.6078 27.0707C35.3538 26.8413 34.1437 25.8964 32.919 24.9708C29.9349 22.7164 26.5417 19.3073 26.5417 18.5645C26.5417 18.4089 26.4378 18.2396 26.3112 18.188C25.8583 18.0043 24.57 14.9749 24.1016 12.9922C23.56 10.6986 23.4786 6.85293 23.9295 4.85958C24.1719 3.78791 24.4568 3.3617 25.3283 2.76558C25.9306 2.35396 26.8762 1.90364 27.4304 1.76484C28.5375 1.48753 31.0039 1.81363 31.1602 2.25806ZM35.2832 11.4352C35.7773 13.6256 36.0506 21.0388 35.637 21.0388C35.2657 21.0388 32.9613 18.2062 32.2481 16.8729L31.7444 15.9316L33.1176 12.8773C33.873 11.1974 34.5873 9.82289 34.7051 9.82289C34.823 9.82289 35.0831 10.5483 35.2832 11.4352ZM32.256 26.1521L34.6162 27.9654L33.9853 29.7597C32.772 33.2116 32.286 33.683 28.2546 35.3199C25.1977 36.561 21.8972 37.7527 20.8542 37.9916C20.6937 38.0283 20.3656 38.1273 20.125 38.2114C19.8844 38.2958 17.9812 38.754 15.8958 39.2301C11.993 40.1209 9.52875 40.5123 5.97917 40.8053L3.9375 40.9739L5.10417 40.3191C5.74583 39.9591 6.69725 39.4962 7.21875 39.2904C7.74025 39.0845 8.16667 38.8053 8.16667 38.6698C8.16667 38.5341 8.33933 38.4234 8.55021 38.4234C8.76137 38.4234 10.1395 37.6063 11.6127 36.6075C13.0862 35.6087 14.2917 34.8699 14.2917 34.9661C14.2917 35.062 14.6137 34.8065 15.0068 34.3986C15.4003 33.9906 15.8681 33.6566 16.0466 33.6566C16.2251 33.6566 16.707 33.2728 17.1176 32.8037C17.5283 32.3346 17.9212 32.0054 17.9909 32.0721C18.2006 32.274 23.8146 26.6616 25.7364 24.3287L27.5304 22.1508L28.7131 23.2449C29.3635 23.8467 30.9578 25.1547 32.256 26.1521ZM41.7582 32.2031C41.2201 34.8475 35.8447 39.8242 30.9805 42.1815L29.4403 42.928L30.3406 41.2133C32.6255 36.8618 35.4098 30.1416 35.1164 29.6854C35.0335 29.5564 35.1047 29.4507 35.2745 29.4507C35.4442 29.4507 35.5833 29.2732 35.5833 29.0564C35.5833 28.7884 36.587 29.1532 38.7188 30.1965C41.0538 31.3391 41.8297 31.8512 41.7582 32.2031ZM55.1008 37.9722C55.034 38.0325 54.4542 38.1419 53.8125 38.2156C53.1708 38.2891 51.924 38.5675 51.0417 38.8347C45.8421 40.408 42.917 41.3395 42.1458 41.667C41.6646 41.8714 37.399 43.4428 32.6667 45.1588L24.0625 48.279L21.2432 47.9356C16.5363 47.3619 13.6981 47.7931 9.08921 49.7814L7.399 50.5107L6.7375 53.1479C6.21308 55.2393 5.95321 55.8226 5.48129 55.9667C5.15404 56.0665 4.445 56.3985 3.90542 56.7044C3.09488 57.1643 2.97442 57.3507 3.21242 57.7781C3.48337 58.2648 3.63125 58.2368 5.75137 57.2952C10.029 55.3952 14.7586 55.4045 22.8958 57.3289C27.6077 58.4432 32.5561 59.3553 35.3185 59.6186C37.21 59.7989 37.2403 59.791 37.1907 59.1369C37.1437 58.5141 36.9763 58.4538 34.5651 58.1914L31.9897 57.911L33.8853 55.2264C37.9642 49.4497 40.8631 46.2383 44.1621 43.8423C46.5395 42.1154 50.4671 40.3043 53.5109 39.5315C55.5004 39.0262 56 38.7952 56 38.381C56 37.9248 55.4371 37.6688 55.1008 37.9722ZM43.4583 42.7205C43.4583 42.7706 42.6087 43.4744 41.5701 44.2845C40.5315 45.0946 39.7092 45.8421 39.7431 45.9459C39.7766 46.0496 39.4123 46.5277 38.9334 47.0086C37.669 48.2779 36.6447 49.464 36.0223 50.3792C35.7219 50.8203 35.3363 51.3174 35.1654 51.4837C34.9942 51.65 33.9389 53.0758 32.8201 54.6522L30.7863 57.5184L29.6117 57.3384C28.966 57.2391 26.6656 56.7826 24.5 56.3236C20.7019 55.5189 19.4737 55.2822 18.2292 55.1165C17.9083 55.0739 17.4157 54.946 17.1348 54.8325C16.8537 54.7189 16.296 54.7049 15.8952 54.8016C15.4945 54.8984 15.1667 54.8701 15.1667 54.7391C15.1667 54.4682 13.2898 54.5274 10.4968 54.8866C9.45233 55.0209 8.32387 55.0624 7.98962 54.9786C7.42379 54.8372 7.40367 54.7385 7.70117 53.5724L8.02083 52.3182L10.5 52.3998C11.8635 52.4449 13.6354 52.3369 14.4375 52.1603C15.2396 51.9834 16.1583 51.8022 16.4792 51.7574C16.8 51.7128 17.2594 51.6071 17.5 51.523C19.0537 50.9781 20.8912 50.4804 21.3477 50.4804C21.642 50.4804 22.111 50.3601 22.3895 50.2132C22.668 50.0663 23.749 49.6723 24.7917 49.3378C26.5711 48.7667 32.4707 46.6183 39.8125 43.8673C42.9389 42.6958 43.4583 42.5323 43.4583 42.7205ZM20.5625 49.0745C22.7821 49.1547 15.1579 50.9781 11.5474 51.2302C9.60954 51.3657 9.00229 51.3292 9.15833 51.0864C9.27354 50.9072 9.55879 50.7608 9.79212 50.7608C10.0255 50.7608 10.4443 50.6439 10.7228 50.5009C11.1595 50.2766 12.0697 49.9194 12.5417 49.787C12.6685 49.7514 14.6962 49.3283 16.4792 48.9652C16.8 48.8998 17.7188 48.8931 18.5208 48.95C19.3229 49.0067 20.2417 49.0628 20.5625 49.0745Z" fill="black"/>
</svg>
