<svg width="15" height="17" viewBox="0 0 15 17" fill="none" xmlns="http://www.w3.org/2000/svg">
<path fill-rule="evenodd" clip-rule="evenodd" d="M2.55002 2.10016C3.86284 0.78734 5.64341 0.0498047 7.50002 0.0498047C9.35663 0.0498047 11.1372 0.78734 12.45 2.10016C13.7628 3.41298 14.5004 5.19355 14.5004 7.05016C14.5004 8.90677 13.7628 10.6873 12.45 12.0002L7.50002 16.9502L2.55002 12.0002C1.89993 11.3501 1.38425 10.5784 1.03242 9.72911C0.680596 8.87979 0.499512 7.96947 0.499512 7.05016C0.499512 6.13085 0.680596 5.22054 1.03242 4.37121C1.38425 3.52189 1.89993 2.75018 2.55002 2.10016ZM7.50002 9.05016C8.03045 9.05016 8.53916 8.83945 8.91423 8.46437C9.2893 8.0893 9.50002 7.5806 9.50002 7.05016C9.50002 6.51973 9.2893 6.01102 8.91423 5.63595C8.53916 5.26088 8.03045 5.05016 7.50002 5.05016C6.96958 5.05016 6.46088 5.26088 6.0858 5.63595C5.71073 6.01102 5.50002 6.51973 5.50002 7.05016C5.50002 7.5806 5.71073 8.0893 6.0858 8.46437C6.46088 8.83945 6.96958 9.05016 7.50002 9.05016Z" fill="#5D636B"/>
</svg>
