<svg width="39" height="40" viewBox="0 0 39 40" fill="none" xmlns="http://www.w3.org/2000/svg">
<path d="M11.375 18.3333V11.6666C11.375 9.45645 12.231 7.33683 13.7548 5.77403C15.2785 4.21123 17.3451 3.33325 19.5 3.33325C21.6549 3.33325 23.7215 4.21123 25.2452 5.77403C26.769 7.33683 27.625 9.45645 27.625 11.6666V18.3333M8.125 18.3333H30.875C32.6699 18.3333 34.125 19.8256 34.125 21.6666V33.3333C34.125 35.1742 32.6699 36.6666 30.875 36.6666H8.125C6.33007 36.6666 4.875 35.1742 4.875 33.3333V21.6666C4.875 19.8256 6.33007 18.3333 8.125 18.3333Z" stroke="#8F8D8D" stroke-width="4" stroke-linecap="round" stroke-linejoin="round"/>
</svg>
