<svg width="55" height="55" viewBox="0 0 55 55" fill="none" xmlns="http://www.w3.org/2000/svg">
<rect width="55" height="55" rx="12" fill="white"/>
<path fill-rule="evenodd" clip-rule="evenodd" d="M25.3858 5.41031C23.999 6.13515 23.5162 6.87174 23.3433 8.52697C23.1365 10.5049 23.3583 14.2495 23.7619 15.5912C23.9469 16.2064 24.0965 16.7577 24.0944 16.8166C24.0923 16.8755 24.515 17.7478 25.0337 18.7555C25.6625 19.977 25.9327 20.7292 25.8448 21.0135C25.7721 21.2478 25.031 22.2732 24.1979 23.2924C19.8067 28.6636 13.0996 33.555 7.36458 35.5689C7.13917 35.648 7 35.9153 7 36.2685V36.8403L9.43625 36.6909C15.9767 36.2903 20.8004 35.1076 26.9198 32.4037C28.3833 31.7572 29.6096 31.2281 29.6446 31.2281C29.8842 31.2281 29.5325 32.1135 28.3306 34.5364C26.7085 37.8068 26.7171 37.7944 25.88 38.0283C25.4754 38.1412 25.259 38.3227 25.3077 38.5077C25.351 38.6714 25.39 38.9254 25.3946 39.0721C25.3992 39.2189 25.4419 39.2989 25.4896 39.2499C25.5373 39.201 25.7677 39.357 26.0017 39.5967L26.4271 40.0325L26.8298 39.3122C27.1331 38.7698 27.5771 38.4413 28.6269 37.9827C29.3935 37.6475 30.795 36.8484 31.7413 36.207C33.4946 35.0184 36.1667 32.4609 36.1667 31.9713C36.1667 31.8223 36.2919 31.6516 36.4448 31.5914C36.5977 31.5312 36.9492 30.94 37.226 30.2774C37.6748 29.203 37.7854 29.0839 38.25 29.1731C41.1973 29.7398 43.0317 29.997 43.3194 29.8841C44.1265 29.5667 43.6731 28.9646 41.8438 27.924C38.1423 25.8191 38.3796 26.1433 37.619 22.1569C36.5335 16.4674 35.1619 12.5068 32.9075 8.55023C32.476 7.79295 30.871 6.24507 29.9317 5.68052C28.6192 4.89122 26.6075 4.77169 25.3858 5.41031ZM29.2573 6.26001C29.2958 6.37634 29.4015 6.42458 29.4923 6.36716C29.7987 6.17293 31.5562 7.97053 32.5356 9.47998C33.0706 10.3045 33.8321 11.7653 34.2275 12.726C35.0215 14.6546 36.4267 19.2291 36.294 19.4532C36.2477 19.5316 36.4279 20.6989 36.6946 22.0472C36.9612 23.3955 37.1406 24.5387 37.0931 24.5873C36.9923 24.6904 34.1181 22.4657 33.6119 21.8926C33.3223 21.5648 33.2635 20.8957 33.2356 17.6151C33.2175 15.476 33.1323 13.726 33.0465 13.726C32.9604 13.726 32.8877 13.3659 32.8846 12.9256C32.8787 12.0912 32.0842 9.67059 31.8158 9.67059C31.7312 9.67059 31.1371 10.8908 30.4958 12.3821L29.33 15.0935L29.1765 14.0453C29.0921 13.4686 29.0785 11.6671 29.1465 10.042C29.2817 6.79895 29.3117 6.88262 27.9929 6.82094C27.1671 6.7823 27.0392 7.34408 27.8302 7.53532L28.3479 7.66061L28.2794 10.8831C28.1815 15.4871 28.5312 16.9782 30.2479 19.2754C31.2733 20.6476 35.17 24.6114 35.4935 24.6114C35.6156 24.6114 35.7465 24.6872 35.7848 24.7798C35.8763 25.0018 38.7017 27.1561 40.0096 28.0011C41.2237 28.7855 41.0154 28.8252 38.8883 28.2143C37.2717 27.7501 33.409 25.983 33.2848 25.6509C33.2465 25.5487 33.1137 25.4652 32.9898 25.4652C32.8656 25.4652 32.6156 25.3224 32.4342 25.1476C32.2527 24.973 31.3883 24.2537 30.5135 23.5491C28.3821 21.8331 25.9583 19.2381 25.9583 18.6727C25.9583 18.5542 25.8842 18.4253 25.7937 18.386C25.4702 18.2462 24.55 15.9402 24.2154 14.431C23.8285 12.685 23.7704 9.75767 24.0925 8.24032C24.2656 7.42455 24.4692 7.10012 25.0917 6.64634C25.5219 6.33301 26.1973 5.99023 26.5931 5.88457C27.384 5.67348 29.1456 5.92171 29.2573 6.26001ZM32.2023 13.2457C32.5552 14.9131 32.7504 20.5561 32.455 20.5561C32.1898 20.5561 30.5438 18.3999 30.0344 17.385L29.6746 16.6685L30.6554 14.3434C31.195 13.0647 31.7052 12.0184 31.7894 12.0184C31.8735 12.0184 32.0594 12.5706 32.2023 13.2457ZM30.04 24.4484L31.7258 25.8287L31.2752 27.1945C30.4085 29.8222 30.0615 30.181 27.1819 31.427C24.9983 32.3717 22.6408 33.2788 21.8958 33.4607C21.7812 33.4887 21.5469 33.564 21.375 33.628C21.2031 33.6923 19.8438 34.041 18.3542 34.4035C15.5665 35.0816 13.8062 35.3795 11.2708 35.6026L9.8125 35.7309L10.6458 35.2325C11.1042 34.9584 11.7838 34.606 12.1562 34.4494C12.5287 34.2927 12.8333 34.0801 12.8333 33.977C12.8333 33.8737 12.9567 33.7894 13.1073 33.7894C13.2581 33.7894 14.2425 33.1674 15.2948 32.4072C16.3473 31.6469 17.2083 31.0845 17.2083 31.1577C17.2083 31.2307 17.4383 31.0362 17.7192 30.7257C18.0002 30.4151 18.3344 30.1609 18.4619 30.1609C18.5894 30.1609 18.9335 29.8687 19.2269 29.5116C19.5202 29.1545 19.8008 28.9039 19.8506 28.9547C20.0004 29.1084 24.0104 24.8362 25.3831 23.0604L26.6646 21.4026L27.5094 22.2354C27.974 22.6935 29.1127 23.6892 30.04 24.4484ZM36.8273 29.0544C36.4429 31.0674 32.6033 34.8557 29.129 36.6501L28.0287 37.2183L28.6719 35.9131C30.304 32.6007 32.2927 27.4852 32.0831 27.1379C32.024 27.0398 32.0748 26.9593 32.196 26.9593C32.3173 26.9593 32.4167 26.8242 32.4167 26.6592C32.4167 26.4551 33.1335 26.7328 34.6562 27.527C36.3242 28.3968 36.8783 28.7866 36.8273 29.0544ZM46.3577 33.446C46.31 33.4919 45.8958 33.5751 45.4375 33.6312C44.9792 33.6872 44.0885 33.8991 43.4583 34.1025C39.7444 35.3001 37.655 36.0092 37.1042 36.2585C36.7604 36.4141 33.7135 37.6102 30.3333 38.9165L24.1875 41.2916L22.1737 41.0302C18.8117 40.5935 16.7844 40.9217 13.4923 42.4352L12.285 42.9904L11.8125 44.9978C11.4379 46.5899 11.2523 47.0338 10.9152 47.1435C10.6815 47.2195 10.175 47.4722 9.78958 47.7051C9.21062 48.0551 9.12458 48.1971 9.29458 48.5224C9.48812 48.8929 9.59375 48.8716 11.1081 48.1548C14.1635 46.7085 17.5419 46.7156 23.3542 48.1804C26.7198 49.0286 30.2544 49.723 32.2275 49.9234C33.5785 50.0606 33.6002 50.0546 33.5648 49.5567C33.5312 49.0826 33.4117 49.0368 31.6894 48.837L29.8498 48.6235L31.2038 46.58C34.1173 42.1827 36.1879 39.7382 38.5444 37.9144C40.2425 36.5998 43.0479 35.2212 45.2221 34.6329C46.6431 34.2483 47 34.0724 47 33.7572C47 33.4099 46.5979 33.215 46.3577 33.446ZM38.0417 37.0604C38.0417 37.0986 37.4348 37.6343 36.6929 38.2509C35.951 38.8676 35.3637 39.4366 35.3879 39.5156C35.4119 39.5946 35.1517 39.9585 34.8096 40.3245C33.9065 41.2908 33.1748 42.1936 32.7302 42.8903C32.5156 43.226 32.2402 43.6045 32.1181 43.731C31.9958 43.8576 31.2421 44.943 30.4429 46.1429L28.9902 48.3247L28.1512 48.1877C27.69 48.1121 26.0469 47.7646 24.5 47.4152C21.7871 46.8027 20.9098 46.6225 20.0208 46.4964C19.7917 46.4639 19.4398 46.3666 19.2392 46.2802C19.0383 46.1937 18.64 46.183 18.3538 46.2567C18.0675 46.3303 17.8333 46.3088 17.8333 46.2091C17.8333 46.0029 16.4927 46.0479 14.4977 46.3214C13.7517 46.4236 12.9456 46.4552 12.7069 46.3914C12.3027 46.2838 12.2883 46.2087 12.5008 45.321L12.7292 44.3662L14.5 44.4284C15.474 44.4627 16.7396 44.3805 17.3125 44.2461C17.8854 44.1114 18.5417 43.9735 18.7708 43.9394C19 43.9054 19.3281 43.825 19.5 43.7609C20.6098 43.3462 21.9223 42.9674 22.2483 42.9674C22.4585 42.9674 22.7935 42.8758 22.9925 42.7639C23.1915 42.6521 23.9635 42.3522 24.7083 42.0976C25.9794 41.6628 30.1933 40.0274 35.4375 37.9333C37.6706 37.0416 38.0417 36.9172 38.0417 37.0604ZM21.6875 41.8972C23.2729 41.9582 17.8271 43.3462 15.2481 43.5381C13.864 43.6412 13.4302 43.6134 13.5417 43.4286C13.624 43.2922 13.8277 43.1808 13.9944 43.1808C14.161 43.1808 14.4602 43.0918 14.6592 42.9829C14.971 42.8122 15.6213 42.5403 15.9583 42.4395C16.049 42.4124 17.4973 42.0903 18.7708 41.8139C19 41.7642 19.6562 41.7591 20.2292 41.8024C20.8021 41.8455 21.4583 41.8882 21.6875 41.8972Z" fill="black"/>
</svg>
