<svg width="40" height="49" viewBox="0 0 40 49" fill="none" xmlns="http://www.w3.org/2000/svg">
<path fill-rule="evenodd" clip-rule="evenodd" d="M18.3858 0.611229C16.999 1.39256 16.5162 2.18655 16.3433 3.97079C16.1365 6.10289 16.3583 10.1393 16.7619 11.5856C16.9469 12.2487 17.0965 12.8429 17.0944 12.9064C17.0923 12.9699 17.515 13.9103 18.0337 14.9965C18.6625 16.3132 18.9327 17.124 18.8448 17.4304C18.7721 17.683 18.031 18.7883 17.1979 19.8869C12.8067 25.6768 6.09958 30.9494 0.364583 33.1202C0.139167 33.2055 0 33.4936 0 33.8743V34.4907L2.43625 34.3297C8.97667 33.8978 13.8004 32.623 19.9198 29.7084C21.3833 29.0115 22.6096 28.4411 22.6446 28.4411C22.8842 28.4411 22.5325 29.3955 21.3306 32.0073C19.7085 35.5325 19.7171 35.5192 18.88 35.7713C18.4754 35.893 18.259 36.0886 18.3077 36.2881C18.351 36.4645 18.39 36.7383 18.3946 36.8964C18.3992 37.0547 18.4419 37.1409 18.4896 37.088C18.5373 37.0353 18.7677 37.2035 19.0017 37.4619L19.4271 37.9317L19.8298 37.1552C20.1331 36.5706 20.5771 36.2165 21.6269 35.7221C22.3935 35.3609 23.795 34.4995 24.7413 33.8081C26.4946 32.5268 29.1667 29.77 29.1667 29.2422C29.1667 29.0816 29.2919 28.8976 29.4448 28.8327C29.5977 28.7678 29.9492 28.1305 30.226 27.4164C30.6748 26.2582 30.7854 26.1298 31.25 26.226C34.1973 26.8368 36.0317 27.114 36.3194 26.9923C37.1265 26.6502 36.6731 26.0012 34.8438 24.8796C31.1423 22.6106 31.3796 22.96 30.619 18.6629C29.5335 12.53 28.1619 8.26077 25.9075 3.99586C25.476 3.17956 23.871 1.51105 22.9317 0.902504C21.6192 0.051686 19.6075 -0.0771559 18.3858 0.611229ZM22.2573 1.52716C22.2958 1.65255 22.4015 1.70455 22.4923 1.64266C22.7987 1.43329 24.5562 3.37098 25.5356 4.99807C26.0706 5.88685 26.8321 7.46149 27.2275 8.49706C28.0215 10.576 29.4267 15.507 29.294 15.7486C29.2477 15.833 29.4279 17.0913 29.6946 18.5447C29.9612 19.9981 30.1406 21.2303 30.0931 21.2828C29.9923 21.3939 27.1181 18.9958 26.6119 18.3781C26.3223 18.0247 26.2635 17.3034 26.2356 13.7672C26.2175 11.4613 26.1323 9.57496 26.0465 9.57496C25.9604 9.57496 25.8877 9.18682 25.8846 8.71218C25.8787 7.81281 25.0842 5.20353 24.8158 5.20353C24.7312 5.20353 24.1371 6.51887 23.4958 8.1264L22.33 11.049L22.1765 9.91915C22.0921 9.29749 22.0785 7.35565 22.1465 5.60386C22.2817 2.1081 22.3117 2.19829 20.9929 2.1318C20.1671 2.09015 20.0392 2.69571 20.8302 2.90186L21.3479 3.03691L21.2794 6.51059C21.1815 11.4733 21.5312 13.0806 23.2479 15.5569C24.2733 17.0361 28.17 21.3088 28.4935 21.3088C28.6156 21.3088 28.7465 21.3905 28.7848 21.4903C28.8763 21.7296 31.7017 24.0517 33.0096 24.9626C34.2237 25.8081 34.0154 25.8509 31.8883 25.1925C30.2717 24.692 26.409 22.7873 26.2848 22.4293C26.2465 22.3191 26.1137 22.2291 25.9898 22.2291C25.8656 22.2291 25.6156 22.0752 25.4342 21.8867C25.2527 21.6985 24.3883 20.9232 23.5135 20.1637C21.3821 18.3139 18.9583 15.5167 18.9583 14.9072C18.9583 14.7795 18.8842 14.6405 18.7937 14.5982C18.4702 14.4475 17.55 11.9618 17.2154 10.3349C16.8285 8.45288 16.7704 5.2974 17.0925 3.6618C17.2656 2.78245 17.4692 2.43273 18.0917 1.94359C18.5219 1.60584 19.1973 1.23634 19.5931 1.12246C20.384 0.894911 22.1456 1.16249 22.2573 1.52716ZM25.2023 9.05729C25.5552 10.8546 25.7504 16.9374 25.455 16.9374C25.1898 16.9374 23.5438 14.6131 23.0344 13.5191L22.6746 12.7468L23.6554 10.2406C24.195 8.86218 24.7052 7.73436 24.7894 7.73436C24.8735 7.73436 25.0594 8.32956 25.2023 9.05729ZM23.04 21.133L24.7258 22.6209L24.2752 24.0932C23.4085 26.9256 23.0615 27.3124 20.1819 28.6556C17.9983 29.6739 15.6408 30.6517 14.8958 30.8477C14.7812 30.8778 14.5469 30.9591 14.375 31.0281C14.2031 31.0973 12.8438 31.4733 11.3542 31.8639C8.56646 32.5949 6.80625 32.9161 4.27083 33.1565L2.8125 33.2948L3.64583 32.7576C4.10417 32.4621 4.78375 32.0823 5.15625 31.9134C5.52875 31.7445 5.83333 31.5154 5.83333 31.4043C5.83333 31.2929 5.95667 31.202 6.10729 31.202C6.25812 31.202 7.2425 30.5316 8.29479 29.7121C9.34729 28.8925 10.2083 28.2863 10.2083 28.3652C10.2083 28.4439 10.4383 28.2343 10.7192 27.8995C11.0002 27.5648 11.3344 27.2907 11.4619 27.2907C11.5894 27.2907 11.9335 26.9758 12.2269 26.5909C12.5202 26.2059 12.8008 25.9358 12.8506 25.9906C13.0004 26.1562 17.0104 21.5511 18.3831 19.6368L19.6646 17.8498L20.5094 18.7476C20.974 19.2413 22.1127 20.3146 23.04 21.133ZM29.8273 26.098C29.4429 28.2679 25.6033 32.3515 22.129 34.2857L21.0287 34.8982L21.6719 33.4913C23.304 29.9207 25.2927 24.4065 25.0831 24.0322C25.024 23.9264 25.0748 23.8396 25.196 23.8396C25.3173 23.8396 25.4167 23.694 25.4167 23.5161C25.4167 23.2962 26.1335 23.5955 27.6562 24.4516C29.3242 25.3892 29.8783 25.8093 29.8273 26.098ZM39.3577 30.8318C39.31 30.8813 38.8958 30.971 38.4375 31.0315C37.9792 31.0918 37.0885 31.3203 36.4583 31.5395C32.7444 32.8305 30.655 33.5948 30.1042 33.8635C29.7604 34.0313 26.7135 35.3206 23.3333 36.7287L17.1875 39.2889L15.1737 39.0071C11.8117 38.5364 9.78437 38.8902 6.49229 40.5217L5.285 41.1201L4.8125 43.284C4.43792 45.0001 4.25229 45.4786 3.91521 45.5969C3.68146 45.6788 3.175 45.9512 2.78958 46.2022C2.21062 46.5796 2.12458 46.7326 2.29458 47.0832C2.48812 47.4826 2.59375 47.4596 4.10812 46.687C7.16354 45.128 10.5419 45.1356 16.3542 46.7146C19.7198 47.6289 23.2544 48.3774 25.2275 48.5934C26.5785 48.7413 26.6002 48.7349 26.5648 48.1981C26.5312 47.6871 26.4117 47.6377 24.6894 47.4223L22.8498 47.1922L24.2038 44.9895C27.1173 40.2495 29.1879 37.6144 31.5444 35.6485C33.2425 34.2314 36.0479 32.7454 38.2221 32.1113C39.6431 31.6967 40 31.5071 40 31.1673C40 30.7929 39.5979 30.5829 39.3577 30.8318ZM31.0417 34.7279C31.0417 34.7691 30.4348 35.3466 29.6929 36.0113C28.951 36.676 28.3637 37.2894 28.3879 37.3745C28.4119 37.4596 28.1517 37.8519 27.8096 38.2465C26.9065 39.288 26.1748 40.2612 25.7302 41.0122C25.5156 41.3741 25.2402 41.782 25.1181 41.9185C24.9958 42.0549 24.2421 43.2248 23.4429 44.5183L21.9902 46.8701L21.1512 46.7224C20.69 46.641 19.0469 46.2664 17.5 45.8898C14.7871 45.2295 13.9098 45.0353 13.0208 44.8993C12.7917 44.8643 12.4398 44.7594 12.2392 44.6662C12.0383 44.5731 11.64 44.5616 11.3538 44.6409C11.0675 44.7203 10.8333 44.6971 10.8333 44.5896C10.8333 44.3674 9.49271 44.4159 7.49771 44.7107C6.75167 44.8209 5.94562 44.8549 5.70687 44.7861C5.30271 44.6702 5.28833 44.5892 5.50083 43.6323L5.72917 42.6032L7.5 42.6701C8.47396 42.7072 9.73958 42.6186 10.3125 42.4736C10.8854 42.3285 11.5417 42.1798 11.7708 42.143C12 42.1064 12.3281 42.0197 12.5 41.9507C13.6098 41.5036 14.9223 41.0953 15.2483 41.0953C15.4585 41.0953 15.7935 40.9966 15.9925 40.876C16.1915 40.7554 16.9635 40.4322 17.7083 40.1577C18.9794 39.689 23.1933 37.9262 28.4375 35.6689C30.6706 34.7077 31.0417 34.5735 31.0417 34.7279ZM14.6875 39.9417C16.2729 40.0075 10.8271 41.5036 8.24813 41.7105C6.86396 41.8216 6.43021 41.7917 6.54167 41.5924C6.62396 41.4454 6.82771 41.3253 6.99438 41.3253C7.16104 41.3253 7.46021 41.2294 7.65917 41.112C7.97104 40.928 8.62125 40.6349 8.95833 40.5263C9.04896 40.4971 10.4973 40.1499 11.7708 39.8519C12 39.7983 12.6562 39.7928 13.2292 39.8395C13.8021 39.886 14.4583 39.932 14.6875 39.9417Z" fill="black"/>
</svg>
