<svg width="55" height="55" viewBox="0 0 55 55" fill="none" xmlns="http://www.w3.org/2000/svg">
<circle cx="27.5" cy="27.5" r="27.5" fill="url(#paint0_radial_808_103)"/>
<path fill-rule="evenodd" clip-rule="evenodd" d="M26.3557 11.2981C25.3483 11.8246 24.9977 12.3597 24.872 13.562C24.7218 14.9989 24.8829 17.719 25.1761 18.6936C25.3105 19.1405 25.4191 19.541 25.4176 19.5837C25.4161 19.6265 25.7232 20.2602 26.1 20.9922C26.5567 21.8795 26.753 22.4259 26.6891 22.6324C26.6363 22.8027 26.098 23.5475 25.4928 24.2879C22.303 28.1896 17.4308 31.7428 13.2648 33.2057C13.1011 33.2632 13 33.4573 13 33.7139V34.1293L14.7697 34.0208C19.5208 33.7297 23.0248 32.8706 27.47 30.9065C28.5332 30.4369 29.4239 30.0525 29.4494 30.0525C29.6234 30.0525 29.3679 30.6956 28.4949 32.4557C27.3166 34.8313 27.3228 34.8223 26.7147 34.9923C26.4208 35.0743 26.2636 35.2061 26.299 35.3405C26.3305 35.4594 26.3588 35.6439 26.3621 35.7505C26.3654 35.8571 26.3965 35.9153 26.4311 35.8796C26.4658 35.8441 26.6331 35.9574 26.8031 36.1316L27.1121 36.4482L27.4047 35.9249C27.625 35.5309 27.9475 35.2923 28.7101 34.9591C29.267 34.7157 30.285 34.1352 30.9724 33.6693C32.2461 32.8058 34.1871 30.948 34.1871 30.5924C34.1871 30.4841 34.2781 30.3601 34.3891 30.3164C34.5002 30.2727 34.7555 29.8432 34.9567 29.3619C35.2826 28.5814 35.363 28.4949 35.7005 28.5597C37.8414 28.9714 39.1739 29.1582 39.3829 29.0762C39.9692 28.8456 39.6399 28.4082 38.311 27.6524C35.6222 26.1233 35.7946 26.3588 35.2421 23.463C34.4536 19.3301 33.4572 16.453 31.8196 13.5789C31.5062 13.0288 30.3403 11.9044 29.6579 11.4943C28.7045 10.921 27.2432 10.8342 26.3557 11.2981ZM29.168 11.9153C29.196 11.9998 29.2728 12.0348 29.3387 11.9931C29.5614 11.852 30.838 13.1578 31.5495 14.2543C31.9381 14.8533 32.4912 15.9144 32.7785 16.6123C33.3552 18.0133 34.376 21.3362 34.2796 21.499C34.246 21.5559 34.3769 22.4039 34.5706 23.3833C34.7643 24.3627 34.8946 25.1932 34.8601 25.2285C34.7869 25.3034 32.699 23.6874 32.3313 23.2711C32.1209 23.0329 32.0782 22.5468 32.058 20.1638C32.0448 18.6099 31.9829 17.3387 31.9205 17.3387C31.858 17.3387 31.8052 17.0771 31.803 16.7572C31.7987 16.1512 31.2215 14.3928 31.0266 14.3928C30.9652 14.3928 30.5335 15.2792 30.0677 16.3625L29.2208 18.3321L29.1093 17.5706C29.048 17.1517 29.0382 15.8431 29.0875 14.6626C29.1857 12.3068 29.2075 12.3676 28.2496 12.3228C27.6497 12.2947 27.5568 12.7028 28.1314 12.8417L28.5074 12.9327L28.4577 15.2736C28.3865 18.618 28.6406 19.7011 29.8876 21.3699C30.6325 22.3667 33.4631 25.246 33.6981 25.246C33.7868 25.246 33.8819 25.3011 33.9097 25.3684C33.9761 25.5296 36.0286 27.0945 36.9787 27.7083C37.8606 28.2781 37.7093 28.307 36.1642 27.8632C34.9898 27.526 32.1839 26.2424 32.0937 26.0011C32.0658 25.9269 31.9694 25.8662 31.8794 25.8662C31.7892 25.8662 31.6076 25.7625 31.4758 25.6355C31.3439 25.5087 30.7161 24.9862 30.0806 24.4744C28.5323 23.2278 26.7716 21.3427 26.7716 20.932C26.7716 20.846 26.7177 20.7523 26.6521 20.7238C26.417 20.6222 25.7486 18.9471 25.5055 17.8508C25.2245 16.5825 25.1823 14.456 25.4162 13.3538C25.542 12.7612 25.6899 12.5256 26.1421 12.1959C26.4546 11.9683 26.9452 11.7193 27.2327 11.6426C27.8072 11.4892 29.0869 11.6695 29.168 11.9153ZM31.3073 16.9898C31.5637 18.201 31.7055 22.3002 31.4909 22.3002C31.2982 22.3002 30.1025 20.7339 29.7325 19.9966L29.4712 19.4761L30.1837 17.7872C30.5756 16.8583 30.9462 16.0983 31.0074 16.0983C31.0685 16.0983 31.2035 16.4994 31.3073 16.9898ZM29.7366 25.1276L30.9612 26.1303L30.6339 27.1224C30.0043 29.0312 29.7522 29.2918 27.6604 30.197C26.0743 30.8832 24.3617 31.5422 23.8206 31.6743C23.7373 31.6946 23.5671 31.7493 23.4422 31.7958C23.3174 31.8425 22.3299 32.0959 21.2478 32.3591C19.2228 32.8517 17.9442 33.0681 16.1024 33.2302L15.043 33.3234L15.6484 32.9613C15.9813 32.7622 16.475 32.5063 16.7456 32.3925C17.0162 32.2787 17.2374 32.1242 17.2374 32.0493C17.2374 31.9743 17.327 31.9131 17.4364 31.9131C17.546 31.9131 18.2611 31.4612 19.0255 30.909C19.79 30.3567 20.4155 29.9481 20.4155 30.0013C20.4155 30.0544 20.5826 29.9131 20.7866 29.6875C20.9907 29.4619 21.2335 29.2773 21.3261 29.2773C21.4187 29.2773 21.6687 29.065 21.8818 28.8056C22.0949 28.5462 22.2987 28.3642 22.3349 28.4011C22.4437 28.5127 25.3566 25.4093 26.3538 24.1193L27.2846 22.9151L27.8983 23.5201C28.2358 23.8528 29.063 24.5761 29.7366 25.1276ZM34.667 28.4735C34.3878 29.9357 31.5986 32.6877 29.0748 33.9911L28.2756 34.4039L28.7428 33.4558C29.9283 31.0496 31.373 27.3336 31.2208 27.0813C31.1778 27.01 31.2147 26.9516 31.3028 26.9516C31.3909 26.9516 31.4631 26.8534 31.4631 26.7336C31.4631 26.5853 31.9838 26.7871 33.0899 27.364C34.3015 27.9958 34.7041 28.2789 34.667 28.4735ZM41.59 31.6636C41.5554 31.6969 41.2545 31.7574 40.9216 31.7982C40.5886 31.8388 39.9417 31.9927 39.4839 32.1405C36.786 33.0105 35.2683 33.5255 34.8681 33.7066C34.6184 33.8197 32.4051 34.6885 29.9497 35.6374L25.4853 37.3628L24.0224 37.1729C21.5802 36.8556 20.1075 37.0941 17.7161 38.1935L16.8391 38.5968L16.4959 40.055C16.2238 41.2115 16.0889 41.534 15.8441 41.6137C15.6743 41.6689 15.3064 41.8525 15.0264 42.0216C14.6058 42.2759 14.5433 42.379 14.6668 42.6153C14.8074 42.8845 14.8841 42.869 15.9842 42.3483C18.2037 41.2977 20.6578 41.3028 24.8799 42.3669C27.3248 42.9831 29.8923 43.4874 31.3256 43.633C32.3071 43.7327 32.3228 43.7284 32.2971 43.3667C32.2727 43.0223 32.1858 42.989 30.9347 42.8438L29.5984 42.6888L30.582 41.2044C32.6984 38.0101 34.2025 36.2344 35.9143 34.9095C37.1479 33.9546 39.1858 32.9531 40.7651 32.5258C41.7974 32.2464 42.0566 32.1186 42.0566 31.8896C42.0566 31.6374 41.7645 31.4958 41.59 31.6636ZM35.5491 34.2891C35.5491 34.3169 35.1083 34.7061 34.5694 35.154C34.0305 35.6019 33.6039 36.0153 33.6214 36.0726C33.6388 36.13 33.4498 36.3944 33.2013 36.6603C32.5453 37.3622 32.0138 38.018 31.6908 38.5241C31.5349 38.768 31.3349 39.0429 31.2462 39.1348C31.1574 39.2268 30.6098 40.0152 30.0293 40.8868L28.974 42.4717L28.3646 42.3722C28.0295 42.3173 26.8359 42.0649 25.7123 41.8111C23.7416 41.3661 23.1043 41.2352 22.4585 41.1436C22.2921 41.12 22.0365 41.0493 21.8907 40.9865C21.7448 40.9237 21.4555 40.916 21.2475 40.9695C21.0396 41.023 20.8695 41.0073 20.8695 40.9349C20.8695 40.7851 19.8956 40.8178 18.4464 41.0165C17.9045 41.0907 17.319 41.1137 17.1456 41.0673C16.852 40.9892 16.8415 40.9346 16.9959 40.2898L17.1618 39.5962L18.4481 39.6414C19.1556 39.6663 20.075 39.6066 20.4912 39.5089C20.9073 39.4111 21.384 39.3109 21.5505 39.2861C21.717 39.2615 21.9553 39.203 22.0802 39.1565C22.8864 38.8553 23.8398 38.5801 24.0766 38.5801C24.2293 38.5801 24.4727 38.5135 24.6172 38.4323C24.7617 38.3511 25.3226 38.1332 25.8636 37.9482C26.7869 37.6324 29.848 36.4444 33.6574 34.9233C35.2796 34.2755 35.5491 34.1851 35.5491 34.2891ZM23.6692 37.8027C24.8209 37.847 20.865 38.8553 18.9916 38.9946C17.9861 39.0695 17.671 39.0494 17.752 38.9151C17.8117 38.816 17.9598 38.7351 18.0808 38.7351C18.2019 38.7351 18.4192 38.6704 18.5637 38.5914C18.7903 38.4673 19.2626 38.2698 19.5075 38.1966C19.5733 38.1769 20.6254 37.943 21.5505 37.7422C21.717 37.7061 22.1937 37.7023 22.6099 37.7338C23.026 37.7651 23.5028 37.7961 23.6692 37.8027Z" fill="black"/>
<defs>
<radialGradient id="paint0_radial_808_103" cx="0" cy="0" r="1" gradientUnits="userSpaceOnUse" gradientTransform="translate(27.5 27.5) rotate(31.4965) scale(52.637)">
<stop stop-color="white"/>
<stop offset="1" stop-color="#414F7D"/>
</radialGradient>
</defs>
</svg>
