<svg width="14" height="16" viewBox="0 0 14 16" fill="none" xmlns="http://www.w3.org/2000/svg">
<path fill-rule="evenodd" clip-rule="evenodd" d="M7 6.9502C7.79565 6.9502 8.55871 6.63413 9.12132 6.07152C9.68393 5.50891 10 4.74584 10 3.9502C10 3.15455 9.68393 2.39148 9.12132 1.82888C8.55871 1.26627 7.79565 0.950195 7 0.950195C6.20435 0.950195 5.44129 1.26627 4.87868 1.82888C4.31607 2.39148 4 3.15455 4 3.9502C4 4.74584 4.31607 5.50891 4.87868 6.07152C5.44129 6.63413 6.20435 6.9502 7 6.9502ZM0 15.9502C-1.36979e-08 15.0309 0.18106 14.1207 0.532843 13.2714C0.884626 12.4221 1.40024 11.6505 2.05025 11.0004C2.70026 10.3504 3.47194 9.83482 4.32122 9.48304C5.1705 9.13126 6.08075 8.9502 7 8.9502C7.91925 8.9502 8.8295 9.13126 9.67878 9.48304C10.5281 9.83482 11.2997 10.3504 11.9497 11.0004C12.5998 11.6505 13.1154 12.4221 13.4672 13.2714C13.8189 14.1207 14 15.0309 14 15.9502H0Z" fill="#5D636B"/>
</svg>
