<svg width="15" height="15" viewBox="0 0 15 15" fill="none" xmlns="http://www.w3.org/2000/svg">
<g clip-path="url(#clip0_966_770)">
<path d="M7.5 1.875H3.125C2.79348 1.875 2.47554 2.0067 2.24112 2.24112C2.0067 2.47554 1.875 2.79348 1.875 3.125V11.875C1.875 12.2065 2.0067 12.5245 2.24112 12.7589C2.47554 12.9933 2.79348 13.125 3.125 13.125H11.875C12.2065 13.125 12.5245 12.9933 12.7589 12.7589C12.9933 12.5245 13.125 12.2065 13.125 11.875V7.5" stroke="white" stroke-width="2" stroke-linecap="round" stroke-linejoin="round"/>
<path d="M11.4839 1.64077C11.7326 1.39213 12.0698 1.25244 12.4214 1.25244C12.7731 1.25244 13.1103 1.39213 13.3589 1.64077C13.6076 1.88941 13.7473 2.22664 13.7473 2.57827C13.7473 2.9299 13.6076 3.26713 13.3589 3.51577L7.72582 9.14952C7.57741 9.2978 7.39407 9.40634 7.1927 9.46514L5.39707 9.99014C5.34329 10.0058 5.28628 10.0068 5.23201 9.99286C5.17775 9.97896 5.12821 9.95073 5.0886 9.91111C5.04899 9.8715 5.02075 9.82197 5.00685 9.7677C4.99294 9.71343 4.99388 9.65642 5.00957 9.60264L5.53457 7.80702C5.59365 7.6058 5.7024 7.42268 5.85082 7.27452L11.4839 1.64077Z" stroke="white" stroke-width="2" stroke-linecap="round" stroke-linejoin="round"/>
</g>
<defs>
<clipPath id="clip0_966_770">
<rect width="15" height="15" fill="white"/>
</clipPath>
</defs>
</svg>
