<svg width="20" height="21" viewBox="0 0 20 21" fill="none" xmlns="http://www.w3.org/2000/svg">
<path fill-rule="evenodd" clip-rule="evenodd" d="M6 6.4502V5.4502C6 4.65455 6.31607 3.89148 6.87868 3.32888C7.44129 2.76627 8.20435 2.4502 9 2.4502H11C11.7956 2.4502 12.5587 2.76627 13.1213 3.32888C13.6839 3.89148 14 4.65455 14 5.4502V6.4502H16C16.5304 6.4502 17.0391 6.66091 17.4142 7.03598C17.7893 7.41105 18 7.91976 18 8.4502V12.0202C15.4396 12.9689 12.7305 13.4532 10 13.4502C7.2695 13.4532 4.56037 12.969 2 12.0202V8.4502C2 7.91976 2.21071 7.41105 2.58579 7.03598C2.96086 6.66091 3.46957 6.4502 4 6.4502H6ZM8 5.4502C8 5.18498 8.10536 4.93063 8.29289 4.74309C8.48043 4.55555 8.73478 4.4502 9 4.4502H11C11.2652 4.4502 11.5196 4.55555 11.7071 4.74309C11.8946 4.93063 12 5.18498 12 5.4502V6.4502H8V5.4502ZM9 10.4502C9 10.185 9.10536 9.93062 9.29289 9.74309C9.48043 9.55555 9.73478 9.4502 10 9.4502H10.01C10.2752 9.4502 10.5296 9.55555 10.7171 9.74309C10.9046 9.93062 11.01 10.185 11.01 10.4502C11.01 10.7154 10.9046 10.9698 10.7171 11.1573C10.5296 11.3448 10.2752 11.4502 10.01 11.4502H10C9.73478 11.4502 9.48043 11.3448 9.29289 11.1573C9.10536 10.9698 9 10.7154 9 10.4502Z" fill="#5D636B"/>
<path d="M2 14.1421V16.4501C2 16.9805 2.21071 17.4892 2.58579 17.8643C2.96086 18.2394 3.46957 18.4501 4 18.4501H16C16.5304 18.4501 17.0391 18.2394 17.4142 17.8643C17.7893 17.4892 18 16.9805 18 16.4501V14.1421C15.4224 15.0109 12.7201 15.4527 10 15.4501C7.204 15.4501 4.513 14.9901 2 14.1421Z" fill="#5D636B"/>
</svg>
