<svg width="15" height="16" viewBox="0 0 15 16" fill="none" xmlns="http://www.w3.org/2000/svg">
<path fill-rule="evenodd" clip-rule="evenodd" d="M2.49951 7V5C2.49951 3.67392 3.0263 2.40215 3.96398 1.46447C4.90166 0.526784 6.17343 0 7.49951 0C8.82559 0 10.0974 0.526784 11.035 1.46447C11.9727 2.40215 12.4995 3.67392 12.4995 5V7C13.0299 7 13.5387 7.21071 13.9137 7.58579C14.2888 7.96086 14.4995 8.46957 14.4995 9V14C14.4995 14.5304 14.2888 15.0391 13.9137 15.4142C13.5387 15.7893 13.0299 16 12.4995 16H2.49951C1.96908 16 1.46037 15.7893 1.0853 15.4142C0.710225 15.0391 0.499512 14.5304 0.499512 14V9C0.499512 8.46957 0.710225 7.96086 1.0853 7.58579C1.46037 7.21071 1.96908 7 2.49951 7ZM10.4995 5V7H4.49951V5C4.49951 4.20435 4.81558 3.44129 5.37819 2.87868C5.9408 2.31607 6.70386 2 7.49951 2C8.29516 2 9.05822 2.31607 9.62083 2.87868C10.1834 3.44129 10.4995 4.20435 10.4995 5Z" fill="#5D636B"/>
</svg>
