<svg width="17" height="17" viewBox="0 0 17 17" fill="none" xmlns="http://www.w3.org/2000/svg">
<path d="M0.499512 1.4502C0.499512 1.18498 0.604869 0.930625 0.792405 0.743088C0.979941 0.555552 1.2343 0.450195 1.49951 0.450195H3.65251C3.88922 0.450304 4.11821 0.534376 4.29876 0.687455C4.4793 0.840534 4.59969 1.05269 4.63851 1.2862L5.37851 5.7212C5.41387 5.93241 5.38049 6.1494 5.28328 6.34023C5.18606 6.53105 5.03016 6.68562 4.83851 6.7812L3.29051 7.5542C3.84562 8.92985 4.67235 10.1795 5.72129 11.2284C6.77023 12.2774 8.01986 13.1041 9.39551 13.6592L10.1695 12.1112C10.265 11.9197 10.4194 11.764 10.6101 11.6668C10.8007 11.5696 11.0174 11.5361 11.2285 11.5712L15.6635 12.3112C15.897 12.35 16.1092 12.4704 16.2623 12.651C16.4153 12.8315 16.4994 13.0605 16.4995 13.2972V15.4502C16.4995 15.7154 16.3942 15.9698 16.2066 16.1573C16.0191 16.3448 15.7647 16.4502 15.4995 16.4502H13.4995C6.31951 16.4502 0.499512 10.6302 0.499512 3.4502V1.4502Z" fill="#5D636B"/>
</svg>
